<svg xmlns="http://www.w3.org/2000/svg" xmlns:xlink="http://www.w3.org/1999/xlink" width="69" zoomAndPan="magnify" viewBox="0 0 51.75 52.499999" height="70" preserveAspectRatio="xMidYMid meet" version="1.0"><defs><clipPath id="c1f8b38b74"><path d="M 7 7 L 44 7 L 44 44 L 7 44 Z M 7 7 " clip-rule="nonzero"/></clipPath><clipPath id="e42757832d"><path d="M 21.996094 51.28125 L 0.175781 21.46875 L 29.484375 0.015625 L 51.308594 29.824219 Z M 21.996094 51.28125 " clip-rule="nonzero"/></clipPath><clipPath id="4dbd621d77"><path d="M 21.996094 51.28125 L 0.175781 21.46875 L 29.484375 0.015625 L 51.308594 29.824219 Z M 21.996094 51.28125 " clip-rule="nonzero"/></clipPath><clipPath id="fd18c23a1f"><path d="M 11 11 L 40 11 L 40 41 L 11 41 Z M 11 11 " clip-rule="nonzero"/></clipPath><clipPath id="1dca32c407"><path d="M 21.996094 51.28125 L 0.175781 21.46875 L 29.484375 0.015625 L 51.308594 29.824219 Z M 21.996094 51.28125 " clip-rule="nonzero"/></clipPath><clipPath id="91f93810fb"><path d="M 21.996094 51.28125 L 0.175781 21.46875 L 29.484375 0.015625 L 51.308594 29.824219 Z M 21.996094 51.28125 " clip-rule="nonzero"/></clipPath><clipPath id="87e3bb2a93"><path d="M 16.753906 16.933594 L 34.503906 16.933594 L 34.503906 34.269531 L 16.753906 34.269531 Z M 16.753906 16.933594 " clip-rule="nonzero"/></clipPath><clipPath id="7bf2c6b64b"><path d="M 16.753906 21 L 30 21 L 30 34.269531 L 16.753906 34.269531 Z M 16.753906 21 " clip-rule="nonzero"/></clipPath></defs><g clip-path="url(#c1f8b38b74)"><g clip-path="url(#e42757832d)"><g clip-path="url(#4dbd621d77)"><path fill="#ffc19e" d="M 15.550781 10.957031 C 17.210938 9.828125 19.0625 8.976562 21 8.457031 C 23.28125 7.839844 25.679688 7.675781 28.019531 7.96875 C 30.359375 8.257812 32.640625 9.007812 34.691406 10.164062 C 36.746094 11.320312 38.5625 12.882812 40.015625 14.730469 C 41.476562 16.574219 42.570312 18.703125 43.214844 20.960938 C 43.863281 23.21875 44.058594 25.597656 43.800781 27.929688 C 43.546875 30.257812 42.835938 32.535156 41.714844 34.589844 C 40.597656 36.648438 39.066406 38.476562 37.253906 39.949219 C 35.441406 41.425781 33.34375 42.546875 31.109375 43.21875 C 28.875 43.894531 26.511719 44.125 24.191406 43.902344 C 21.875 43.683594 19.601562 43.007812 17.539062 41.921875 C 15.480469 40.84375 13.644531 39.351562 12.152344 37.570312 C 10.65625 35.792969 9.511719 33.722656 8.808594 31.511719 C 8.105469 29.300781 7.84375 26.953125 8.03125 24.644531 C 8.21875 22.335938 8.855469 20.066406 9.902344 18.003906 C 10.945312 15.941406 12.402344 14.089844 14.148438 12.582031 C 12.414062 14.105469 10.976562 15.964844 9.949219 18.03125 C 8.921875 20.09375 8.304688 22.359375 8.140625 24.652344 C 7.96875 26.949219 8.25 29.277344 8.964844 31.460938 C 9.675781 33.644531 10.824219 35.683594 12.316406 37.429688 C 13.804688 39.175781 15.628906 40.632812 17.667969 41.683594 C 19.703125 42.734375 21.945312 43.378906 24.222656 43.578125 C 26.5 43.777344 28.816406 43.53125 30.996094 42.855469 C 33.179688 42.179688 35.222656 41.066406 36.976562 39.613281 C 38.738281 38.160156 40.210938 36.367188 41.285156 34.359375 C 42.359375 32.351562 43.03125 30.132812 43.261719 27.871094 C 43.492188 25.609375 43.28125 23.304688 42.640625 21.128906 C 42 18.949219 40.925781 16.902344 39.507812 15.136719 C 38.089844 13.367188 36.328125 11.875 34.347656 10.78125 C 32.367188 9.6875 30.171875 8.984375 27.925781 8.726562 C 25.683594 8.460938 23.390625 8.636719 21.214844 9.242188 C 19.378906 9.75 17.628906 10.570312 16.058594 11.652344 C 16.148438 12.042969 16.015625 12.46875 15.683594 12.742188 C 15.214844 13.121094 14.53125 13.050781 14.148438 12.582031 C 13.769531 12.117188 13.839844 11.429688 14.308594 11.050781 C 14.671875 10.753906 15.167969 10.730469 15.550781 10.957031 Z M 15.550781 10.957031 " fill-opacity="1" fill-rule="nonzero"/></g></g></g><g clip-path="url(#fd18c23a1f)"><g clip-path="url(#1dca32c407)"><g clip-path="url(#91f93810fb)"><path fill="#dddfff" d="M 17.332031 14.640625 C 18.808594 13.546875 20.496094 12.746094 22.273438 12.296875 C 24.050781 11.84375 25.914062 11.746094 27.726562 12 C 29.539062 12.25 31.300781 12.859375 32.878906 13.777344 C 34.457031 14.695312 35.851562 15.929688 36.960938 17.375 C 38.074219 18.816406 38.90625 20.476562 39.382812 22.230469 C 39.863281 23.988281 39.996094 25.835938 39.777344 27.636719 C 39.558594 29.441406 38.988281 31.199219 38.105469 32.78125 C 37.222656 34.367188 36.027344 35.773438 34.613281 36.902344 C 36.015625 35.757812 37.195312 34.34375 38.058594 32.757812 C 38.921875 31.171875 39.472656 29.417969 39.667969 27.625 C 39.871094 25.835938 39.71875 24.003906 39.226562 22.277344 C 38.738281 20.546875 37.898438 18.917969 36.789062 17.507812 C 35.679688 16.09375 34.300781 14.898438 32.742188 14.011719 C 31.1875 13.125 29.457031 12.550781 27.683594 12.320312 C 25.910156 12.089844 24.09375 12.207031 22.367188 12.664062 C 20.640625 13.117188 19.011719 13.914062 17.589844 14.988281 C 16.167969 16.0625 14.957031 17.410156 14.046875 18.9375 C 13.140625 20.46875 12.539062 22.171875 12.277344 23.929688 C 12.015625 25.683594 12.097656 27.488281 12.519531 29.207031 C 12.941406 30.929688 13.699219 32.5625 14.742188 33.988281 C 15.785156 35.417969 17.097656 36.644531 18.597656 37.574219 C 20.09375 38.503906 21.777344 39.128906 23.511719 39.421875 C 25.25 39.710938 27.039062 39.664062 28.753906 39.277344 C 30.128906 38.972656 31.453125 38.445312 32.664062 37.730469 C 32.597656 37.339844 32.75 36.925781 33.089844 36.671875 C 33.574219 36.316406 34.257812 36.417969 34.613281 36.902344 C 34.972656 37.386719 34.871094 38.066406 34.386719 38.425781 C 34.003906 38.707031 33.5 38.703125 33.128906 38.449219 C 31.824219 39.207031 30.402344 39.761719 28.929688 40.074219 C 27.105469 40.464844 25.214844 40.492188 23.382812 40.167969 C 21.554688 39.84375 19.789062 39.167969 18.222656 38.171875 C 16.652344 37.179688 15.289062 35.875 14.214844 34.371094 C 13.136719 32.867188 12.359375 31.148438 11.941406 29.347656 C 11.519531 27.546875 11.453125 25.667969 11.742188 23.847656 C 12.03125 22.023438 12.671875 20.261719 13.628906 18.6875 C 14.585938 17.113281 15.855469 15.734375 17.332031 14.640625 Z M 17.332031 14.640625 " fill-opacity="1" fill-rule="nonzero"/></g></g></g><g clip-path="url(#87e3bb2a93)"><path fill="#ffd0b6" d="M 34.097656 34.328125 L 34.5 32.285156 C 33.832031 31.601562 32.183594 30.136719 31.472656 29.5 C 30.9375 29.023438 30.957031 28.773438 31.550781 28.34375 C 33.726562 26.773438 34.589844 24.085938 33.824219 21.480469 C 33.105469 19.023438 30.804688 17.101562 28.199219 17.039062 C 24.59375 16.945312 20.980469 17.011719 17.371094 17.007812 C 17.070312 17.007812 16.8125 17.03125 16.8125 17.4375 C 16.816406 19.046875 16.816406 20.65625 16.816406 22.410156 L 16.816406 22.40625 C 16.839844 22.34375 17.589844 20.554688 20.226562 20.191406 C 20.289062 20.171875 20.359375 20.164062 20.429688 20.164062 C 20.429688 20.164062 20.433594 20.164062 20.4375 20.164062 C 20.472656 20.164062 20.507812 20.164062 20.542969 20.164062 C 20.625 20.167969 20.710938 20.171875 20.796875 20.171875 C 21.222656 20.171875 21.648438 20.171875 22.078125 20.171875 C 23.914062 20.167969 25.757812 20.164062 27.59375 20.171875 C 29.558594 20.179688 30.9375 21.46875 30.941406 23.28125 C 30.945312 25.179688 29.621094 26.425781 27.578125 26.441406 C 26.097656 26.453125 24.613281 26.425781 23.132812 26.480469 C 22.140625 26.515625 21.515625 27.195312 21.539062 28.066406 C 21.5625 28.957031 22.199219 29.566406 23.191406 29.585938 C 24.28125 29.613281 25.375 29.621094 26.464844 29.589844 C 26.953125 29.574219 27.308594 29.726562 27.648438 30.070312 C 28.773438 31.226562 30.632812 33.191406 31.773438 34.328125 Z M 34.097656 34.328125 " fill-opacity="1" fill-rule="nonzero"/></g><g clip-path="url(#7bf2c6b64b)"><path fill="#ffd0b6" d="M 29.375 23.371094 C 29.34375 24.253906 28.6875 24.871094 27.703125 24.882812 C 26.25 24.898438 24.796875 24.878906 23.34375 24.890625 C 21.316406 24.90625 19.972656 26.171875 19.96875 28.050781 C 19.964844 29.859375 21.339844 31.320312 26.34375 31.15625 L 29.527344 34.328125 C 25.324219 34.332031 24.175781 34.332031 23.023438 34.308594 C 19.585938 34.246094 16.882812 31.570312 16.820312 28.199219 C 16.753906 24.765625 19.34375 21.921875 22.78125 21.75 C 24.425781 21.667969 26.078125 21.707031 27.730469 21.734375 C 28.722656 21.75 29.410156 22.472656 29.375 23.371094 Z M 29.375 23.371094 " fill-opacity="1" fill-rule="nonzero"/></g></svg>